# xmcd
#
# Track frame offsets:
#	150
#	17255
#	28320
#
# Disc length: 561 seconds
#
# Revision: 0
# Processed by: cddbd v1.5.2PL0 Copyright (c) Steve Scherf et al.
# Submitted via: audiograbber 1.83.01
#
DISCID=18022f03
DTITLE=Tom Astor - Tom Astor
DYEAR=1993
DGENRE=
TTITLE0=Sturm und Drang
TTITLE1=Manchmal will sie nur einfach Frau sein
TTITLE2=Ich bin verrückt nach dir
EXTD=
EXTT0=
EXTT1=
EXTT2=
PLAYORDER=
